<?xml version="1.0" encoding="utf-8"?>
<!-- Generator: Adobe Illustrator 26.0.2, SVG Export Plug-In . SVG Version: 6.00 Build 0)  -->
<svg version="1.1" id="Calque_1" xmlns="http://www.w3.org/2000/svg" xmlns:xlink="http://www.w3.org/1999/xlink" x="0px" y="0px"
	 viewBox="0 0 110.8 20" style="enable-background:new 0 0 110.8 20;" xml:space="preserve">
<style type="text/css">
	.st0{fill:#555555;}
	.st1{fill:#D9B391;}
	.st2{fill:url(#SVGID_1_);}
	.st3{enable-background:new    ;}
	.st4{fill:#010101;}
	.st5{font-family:'Verdana';}
	.st6{font-size:11px;}
	.st7{fill:#FFFFFF;}
</style>
<path class="st0" d="M3,0h84c1.7,0,3,1.3,3,3v14c0,1.7-1.3,3-3,3H3c-1.7,0-3-1.3-3-3V3C0,1.3,1.3,0,3,0z"/>
<path class="st1" d="M48.7,0h58.3c2.1,0,3.7,1.3,3.7,3v14c0,1.7-1.7,3-3.7,3H48.7c-2.1,0-3.7-1.3-3.7-3V3C45,1.3,46.7,0,48.7,0z"/>
<path class="st1" d="M44,0h4v20h-4V0z"/>
<linearGradient id="SVGID_1_" gradientUnits="userSpaceOnUse" x1="-248.5846" y1="410.3398" x2="-248.5846" y2="409.3398" gradientTransform="matrix(90 0 0 -20 22428 8206.7969)">
	<stop  offset="0" style="stop-color:#BBBBBB;stop-opacity:0.1"/>
	<stop  offset="1" style="stop-color:#000000;stop-opacity:0.1"/>
</linearGradient>
<path class="st2" d="M3.7,0h103.4c2,0,3.7,1.3,3.7,3v14c0,1.7-1.7,3-3.7,3H3.7c-2,0-3.7-1.3-3.7-3V3C0,1.3,1.7,0,3.7,0z"/>
<g>
	<g class="st3">
		<text transform="matrix(1 0 0 1 0.658 14.5)" class="st4 st5 st6">Licence</text>
	</g>
	<text transform="matrix(1 0 0 1 0.658 13.5)" class="st7 st5 st6">Licence</text>
	<g class="st3">
		<text transform="matrix(1 0 0 1 49.5511 14.5)" class="st4 st5 st6">BY NC SA</text>
	</g>
	<text transform="matrix(1 0 0 1 49.5511 13.5)" class="st7 st5 st6">BY NC SA</text>
</g>
</svg>
