<svg xmlns="http://www.w3.org/2000/svg" width="1072.306" height="848.967" viewBox="0 0 1072.306 848.967">
  <g id="Groupe_50" data-name="Groupe 50" transform="translate(-564.847 -1219.033)">
    <g id="Groupe_49" data-name="Groupe 49" transform="translate(564.847 1219.033)">
      <path id="Tracé_163" data-name="Tracé 163" d="M810.594,464.831,765.328,415.59l37.047-29.232,18.3,40.461,83.031,27.43a16.634,16.634,0,1,1-5.349,23.94Z" transform="translate(-621.826 -50.159)" fill="#ffb6b6"/>
      <path id="Tracé_164" data-name="Tracé 164" d="M829.937,368.155c-8.205,18.3,41.856,70.566,41.856,70.566,13.691,11.072,15.861,38.785,32.832,41.871,45.778,8.323,17.306-.387,29.131,4.162,11.128,4.28.879-32.352,8.323-34.68,4.257-1.332-19.421-16.646-19.421-16.646s-21.339-41.848-34.46-63.555a42.51,42.51,0,0,0-35.136-21.167S838.142,349.858,829.937,368.155Z" transform="translate(-724.146 -64.738)" fill="#d9b391"/>
      <path id="Tracé_165" data-name="Tracé 165" d="M395.478,991.323H915.62a46.553,46.553,0,0,0,46.5-46.5V190.5a46.553,46.553,0,0,0-46.5-46.5H395.478a46.553,46.553,0,0,0-46.5,46.5V944.823a46.553,46.553,0,0,0,46.5,46.5Z" transform="translate(-77.749 -144)" fill="#3f3d56"/>
      <path id="Tracé_166" data-name="Tracé 166" d="M385.84,953.374H907.813a14.351,14.351,0,0,0,14.334-14.334V179.721a14.351,14.351,0,0,0-14.334-14.334H385.84a14.35,14.35,0,0,0-14.334,14.334V939.04a14.35,14.35,0,0,0,14.334,14.334Z" transform="translate(-69.026 -135.719)" fill="#fff"/>
      <path id="Tracé_167" data-name="Tracé 167" d="M831.936,459.225c-1.457-19.785-3.863-44.108-23.438-54.678-9.237-4.987-19.017-3.223-28.3.665-8.973,3.756-17.427,8.234-27.091,10a78.641,78.641,0,0,1-48.886-7.331,75.14,75.14,0,0,1-34.583-35.394c-3.706-7.814-6.769-16.282-12.23-23.1a25.7,25.7,0,0,0-23.755-9.831c-20.525,2.534-34.146,20.518-50.509,31.106-7.869,5.092-16.906,8.809-26.435,8.354-9.774-.468-18.634-5.094-26.124-11.135C514.689,355.063,506,335.242,489.32,323.3a57.146,57.146,0,0,0-54.849-5.829c-17.094,7.374-29.2,23.9-32.4,42.079a54.051,54.051,0,0,0-.589,13.568c.209,2.671-3.954,2.657-4.162,0a61.276,61.276,0,0,1,20.911-50.268c14.757-12.73,35.373-16.868,54.125-11.969A59.976,59.976,0,0,1,497.907,325c7.715,7.115,13.8,15.736,20.311,23.907,6.353,7.971,13.362,15.67,22.278,20.818A34.413,34.413,0,0,0,569.261,373c9.625-3.247,17.78-9.936,25.481-16.341,7.938-6.6,15.838-13.208,25.38-17.4,8.872-3.9,19.046-5.792,28.281-1.951,8.326,3.463,13.837,10.652,17.921,18.427,4.146,7.892,7.1,16.4,11.936,23.928a67.845,67.845,0,0,0,17.695,18.415,75.991,75.991,0,0,0,49.023,14.007c9.49-.674,18.119-3.673,26.712-7.6,9.485-4.336,19.474-8.846,30.146-6.745,9.206,1.812,16.951,8.066,22.328,15.538,6.208,8.626,8.936,19.2,10.36,29.587.745,5.433,1.171,10.9,1.573,16.366.2,2.672-3.966,2.659-4.162,0Z" transform="translate(-18.615 -147.158)" fill="#e4e4e4"/>
      <path id="Tracé_168" data-name="Tracé 168" d="M695.968,617.639h19.761l9.4-76.22H695.965Z" transform="translate(-618.266 209.638)" fill="#ffb6b6"/>
      <path id="Tracé_169" data-name="Tracé 169" d="M893.754,738.17l21.084-8.565.622-.255,11.643,8.82a24.79,24.79,0,0,1,24.769,23.72c.032.347.032.714.032,1.081v.813H888.188V738.17Z" transform="translate(-815.526 82.648)" fill="#2f2e41"/>
      <path id="Tracé_170" data-name="Tracé 170" d="M645.56,603.176l18.641,6.559,34.165-68.779-27.511-9.679Z" transform="translate(-521.582 205.711)" fill="#ffb6b6"/>
      <path id="Tracé_171" data-name="Tracé 171" d="M874.353,723.358l22.732-1.081.672-.034,8.055,12.184a24.789,24.789,0,0,1,15.493,30.593c-.086.342-.208.688-.33,1.034l-.27.767-60.1-21.148,8.5-24.162Z" transform="translate(-747.735 79.612)" fill="#2f2e41"/>
      <path id="Tracé_172" data-name="Tracé 172" d="M831.448,511.734c-18.078-.7,4.316,143.365,4.316,143.365s-6.551,126.484-5.162,133.122.175,24.54.175,24.54c3.542-6.446,40.083-1.581,40.083-1.581l4.971-128.191,25.38-102.711L936.4,649.125,902.674,754.8s-13.658,12.638-12.205,17.632,37.226,16.257,43.8,16.512,3.606-8.09,3.924-16.307,31.253-84.378,42.134-110.291,2.422-62.452-3.133-89S942.42,496.97,942.42,496.97C906.15,456.061,849.526,512.435,831.448,511.734Z" transform="translate(-760.73 -13.099)" fill="#2a3b5c"/>
      <circle id="Ellipse_14" data-name="Ellipse 14" cx="34.481" cy="34.481" r="34.481" transform="translate(86.828 190.315)" fill="#ffb6b6"/>
      <path id="Tracé_173" data-name="Tracé 173" d="M937.268,352.013c7.428,4.416,11.872,12.531,14.423,20.787a196.994,196.994,0,0,1,8.465,47.066l9.813,95.307L988.907,562.1c-40.5-3.516-130.311,12.987-130.311,12.987s-3.337-1.112,0-4.449,6.585-.381,3.249-3.717-1.036.381.076-2.956,0-1.112-1.112-2.225,8.611-11.123,8.611-11.123l-8.9-58.452L849.4,374.258c13.348-16.684,40.191-26.52,40.191-26.52l6.936-12.485,34.68,2.774Z" transform="translate(-798.719 -69.946)" fill="#d9b391"/>
      <path id="Tracé_174" data-name="Tracé 174" d="M916.325,456.437,924.882,406l29.777,5.4-2.616,44.119,13.034,91.834a16.634,16.634,0,1,1-21.735,11.372Z" transform="translate(-878.71 -42.554)" fill="#ffb6b6"/>
      <path id="Tracé_175" data-name="Tracé 175" d="M943.054,357.724c-19.269,5.548-26.86,77.525-26.86,77.525-8.728,34.737,7.791,49.366,11.983,49.213,11.915-.434,18.515-10.632,25.1-6.451,3.766,2.391,4.469-25.088,4.469-25.088s13.512-25.567,21.615-49.6a42.51,42.51,0,0,0-6.524-40.5S962.323,352.176,943.054,357.724Z" transform="translate(-880.839 -61.866)" fill="#d9b391"/>
      <path id="Tracé_176" data-name="Tracé 176" d="M868.417,307.954c.113-5.6.748-12.767,4.671-18.482,3.311-4.807,9.989-8.617,16.214-6.712a6.741,6.741,0,0,1,3.356-6.213,17.707,17.707,0,0,1,7.7-1.939c6.316-.59,12.858-1.2,19.253.011,7.177,1.361,13.051,5.057,16.1,10.148l.068.159.624,3.016a2.864,2.864,0,0,0,1.417,1.928,2.813,2.813,0,0,0,2.392.17,2.6,2.6,0,0,1,3.481,2.812l-.17,1.2,1.8-.34a2.589,2.589,0,0,1,2.914,3.458l-.5,1.372a2.775,2.775,0,0,1,1.984.873,2.537,2.537,0,0,1,.34,2.971,23.6,23.6,0,0,1-8.322,8.368,19.616,19.616,0,0,1-4.955,2.12q-.544.153-1.123.272a116.856,116.856,0,0,1-42.349,1.27,23.989,23.989,0,0,1,.941,8.572,9,9,0,0,1-5.408,7.6,11.342,11.342,0,0,1-1.973.476,12.164,12.164,0,0,0-1.893.465,5.514,5.514,0,0,0-1.61,9.434s-2.971,2.46-3.345,2.336a7.634,7.634,0,0,1-3.492-3.107C870.877,332.048,868.144,321.208,868.417,307.954Z" transform="translate(-786.563 -93.695)" fill="#2f2e41"/>
      <path id="Tracé_177" data-name="Tracé 177" d="M237.132,676.13l4.051,20.323c.305,1.554.624,3.135.971,4.7a19.82,19.82,0,0,1,10.182.569,95.027,95.027,0,0,0-6.992,11.694c2.552,7.865,6.3,15.134,12.568,20.392a31.516,31.516,0,0,0,30.449,5.355l-.18-.8c6.742-13.081,3.08-29.575-5.3-41.658a80.991,80.991,0,0,0-15.051-15.911c-5.66-4.716-11.777-8.947-17.839-13.123a8.309,8.309,0,0,0-12.859,8.462Z" transform="translate(748.061 58.198)" fill="#e4e4e4"/>
      <path id="a4b268fa-75d0-4ac1-9d87-14bdca948464-2189" d="M262.622,776.57c1.7-12.42,3.458-25,2.263-37.55-1.063-11.148-4.463-22.036-11.387-30.964a51.509,51.509,0,0,0-13.216-11.976c-1.322-.832-2.537,1.261-1.222,2.09a48.968,48.968,0,0,1,19.369,23.37c4.217,10.726,4.894,22.419,4.162,33.812-.44,6.89-1.371,13.733-2.31,20.572a1.248,1.248,0,0,0,.846,1.49,1.218,1.218,0,0,0,1.49-.846Z" transform="translate(772.358 69.692)" fill="#f2f2f2"/>
      <circle id="Ellipse_15" data-name="Ellipse 15" cx="3.956" cy="3.956" r="3.956" transform="translate(575.822 10.285)" fill="#fff"/>
      <path id="Tracé_178" data-name="Tracé 178" d="M397.448,419.1h469.21a1.468,1.468,0,0,0,1.468-1.468L867.414,416l-469.965.166a1.468,1.468,0,0,0-.011,2.937h.011Z" transform="translate(-48.949 -105.681)" fill="#3f3d56"/>
      <rect id="Rectangle_67" data-name="Rectangle 67" width="2.88" height="8.206" transform="translate(728.458 303.148)" fill="#3f3d56"/>
      <rect id="Rectangle_68" data-name="Rectangle 68" width="2.88" height="55.371" transform="translate(642.234 255.983)" fill="#3f3d56"/>
      <rect id="Rectangle_69" data-name="Rectangle 69" width="2.88" height="121.957" transform="translate(555.833 189.398)" fill="#3f3d56"/>
      <rect id="Rectangle_70" data-name="Rectangle 70" width="2.88" height="178.832" transform="translate(469.433 132.523)" fill="#3f3d56"/>
      <rect id="Rectangle_71" data-name="Rectangle 71" width="2.88" height="48.435" transform="translate(383.032 262.919)" fill="#3f3d56"/>
      <path id="Tracé_183" data-name="Tracé 183" d="M8.81,0a8.81,8.81,0,1,0,8.81,8.81A8.81,8.81,0,0,0,8.81,0Z" transform="translate(461.884 104.934)" fill="#d9b391"/>
      <path id="Tracé_182" data-name="Tracé 182" d="M8.81,0a8.81,8.81,0,1,0,8.81,8.81A8.81,8.81,0,0,0,8.81,0Z" transform="translate(546.898 156.616)" fill="#d9b391"/>
      <path id="Tracé_184" data-name="Tracé 184" d="M8.81,0a8.81,8.81,0,1,0,8.81,8.81A8.81,8.81,0,0,0,8.81,0Z" transform="translate(375.484 237.88)" fill="#d9b391"/>
      <path id="Tracé_180" data-name="Tracé 180" d="M214.887,756.774H1284.419a1.387,1.387,0,0,0,0-2.774H214.887a1.387,1.387,0,0,0,0,2.774Z" transform="translate(-213.5 92.193)" fill="#cacaca"/>
      <circle id="Ellipse_19" data-name="Ellipse 19" cx="8.81" cy="8.81" r="8.81" transform="translate(720.693 276.405)" fill="#d9b391"/>
      <path id="Tracé_181" data-name="Tracé 181" d="M8.81,0a8.81,8.81,0,1,0,8.81,8.81A8.81,8.81,0,0,0,8.81,0Z" transform="translate(634.686 227.853)" fill="#d9b391"/>
    </g>
    <g id="Skills" transform="translate(987.191 1632.427)">
      <g id="Groupe_43" data-name="Groupe 43" transform="translate(-99.34 -30.328)">
        <g id="Groupe_42" data-name="Groupe 42" transform="translate(99.34 30.328)">
          <path id="Tracé_82" data-name="Tracé 82" d="M1657.8,2790.664c-85.958,0-155.89-72.176-155.89-160.891s69.932-160.89,155.89-160.89,155.89,72.175,155.89,160.89S1743.761,2790.664,1657.8,2790.664Zm0-321.007c-85.544,0-155.14,71.828-155.14,160.116s69.6,160.117,155.14,160.117,155.14-71.828,155.14-160.117S1743.348,2469.657,1657.8,2469.657Z" transform="translate(-1476.767 -2443.737)" fill="#c8c8c8"/>
          <path id="Tracé_83" data-name="Tracé 83" d="M1657.8,2763.161c-70.793,0-128.387-59.838-128.387-133.388s57.594-133.387,128.387-133.387,128.386,59.837,128.386,133.387S1728.6,2763.161,1657.8,2763.161Zm0-266c-70.379,0-127.637,59.488-127.637,132.608s57.258,132.609,127.637,132.609,127.636-59.488,127.636-132.609S1728.182,2497.165,1657.8,2497.165Z" transform="translate(-1476.767 -2443.737)" fill="#c8c8c8"/>
          <path id="Tracé_84" data-name="Tracé 84" d="M1657.8,2738.205c-57.032,0-103.432-48.644-103.432-108.432s46.4-108.431,103.432-108.431,103.431,48.641,103.431,108.431S1714.835,2738.205,1657.8,2738.205Zm0-216.078c-56.62,0-102.682,48.29-102.682,107.646s46.062,107.646,102.682,107.646,102.681-48.29,102.681-107.646S1714.422,2522.127,1657.8,2522.127Z" transform="translate(-1476.767 -2443.737)" fill="#c8c8c8"/>
          <path id="Tracé_85" data-name="Tracé 85" d="M1657.8,2704.914a80.141,80.141,0,1,1,80.14-80.141A80.232,80.232,0,0,1,1657.8,2704.914Zm0-159.531a79.391,79.391,0,1,0,79.39,79.39A79.48,79.48,0,0,0,1657.8,2545.383Z" transform="translate(-1476.767 -2438.737)" fill="#c8c8c8"/>
          <path id="Tracé_86" data-name="Tracé 86" d="M1657.8,2677.12a52.347,52.347,0,1,1,52.346-52.347A52.406,52.406,0,0,1,1657.8,2677.12Zm0-103.944a51.6,51.6,0,1,0,51.6,51.6A51.656,51.656,0,0,0,1657.8,2573.176Z" transform="translate(-1476.767 -2438.737)" fill="#c8c8c8"/>
          <rect id="Rectangle_43" data-name="Rectangle 43" width="0.75" height="372.072" transform="translate(180.661)" fill="#c8c8c8"/>
          <rect id="Rectangle_44" data-name="Rectangle 44" width="362.072" height="0.75" transform="translate(0 185.661)" fill="#c8c8c8"/>
          <path id="Tracé_89" data-name="Tracé 89" d="M.015,7.056,369.144,0l-.015.766L0,7.822Z" transform="translate(47.771 313.796) rotate(-45.005)" fill="#c8c8c8"/>
          <path id="Tracé_90" data-name="Tracé 90" d="M7.056.015,7.822,0,.766,369.129,0,369.144Z" transform="translate(47.759 58.29) rotate(-45)" fill="#c8c8c8"/>
        </g>
        <path id="Tracé_87" data-name="Tracé 87" d="M1567.285,2534.255l90.518-56.961,72.872,74.608,55.14,72.872-36.3,89.3-91.712-9.53-103.056,18.7,23.291-98.461Z" transform="translate(-1377.427 -2409.798)" fill="#d9b391" opacity="0.7"/>
        <path id="Tracé_88" data-name="Tracé 88" d="M1547.837,2514.808l-18.046,109.966L1657.8,2780.288l51.972-155.515,37.366-91.67-89.338,11.9Z" transform="translate(-1377.427 -2403.409)" fill="#2a3b5c" opacity="0.7"/>
      </g>
    </g>
  </g>
</svg>
