<svg id="Groupe_49" data-name="Groupe 49" xmlns="http://www.w3.org/2000/svg" width="676.658" height="577.348" viewBox="0 0 676.658 577.348">
  <path id="Path_438" data-name="Path 438" d="M576.714,689.724A24.214,24.214,0,0,0,600.1,685.6c8.19-6.875,10.758-18.2,12.847-28.682l6.18-31.017-12.938,8.908c-9.3,6.406-18.818,13.019-25.26,22.3s-9.252,21.947-4.078,31.988" transform="translate(-261.671 -161.326)" fill="#e4e4e4"/>
  <path id="Path_439" data-name="Path 439" d="M578.712,729.434c-1.628-11.864-3.3-23.881-2.159-35.872,1.015-10.649,4.264-21.049,10.878-29.579a49.2,49.2,0,0,1,12.625-11.44c1.262-.8,2.424,1.2,1.167,2a46.78,46.78,0,0,0-18.5,22.326c-4.029,10.246-4.676,21.416-3.982,32.3.419,6.582,1.311,13.121,2.206,19.653a1.2,1.2,0,0,1-.808,1.423,1.163,1.163,0,0,1-1.423-.808Z" transform="translate(-261.671 -161.326)" fill="#f2f2f2"/>
  <path id="Path_442" data-name="Path 442" d="M590.433,710.4a17.825,17.825,0,0,0,15.531,8.019c7.864-.373,14.418-5.86,20.317-11.07l17.452-15.409-11.55-.553c-8.306-.4-16.827-.771-24.738,1.793s-15.208,8.726-16.654,16.915" transform="translate(-261.671 -161.326)" fill="#e4e4e4"/>
  <path id="Path_443" data-name="Path 443" d="M574.109,736.254c7.84-13.871,16.932-29.288,33.181-34.216a37.026,37.026,0,0,1,13.956-1.441c1.482.128,1.112,2.412-.367,2.284a34.4,34.4,0,0,0-22.272,5.892c-6.28,4.275-11.17,10.218-15.308,16.519-2.535,3.861-4.806,7.884-7.076,11.9C575.5,738.481,573.375,737.553,574.109,736.254Z" transform="translate(-261.671 -161.326)" fill="#f2f2f2"/>
  <path id="Tracé_163" data-name="Tracé 163" d="M834.333,568.117H261.671V161.326H834.333Z" transform="translate(-261.671 -161.326)" fill="#fff"/>
  <path id="Tracé_164" data-name="Tracé 164" d="M308.319,328.4a5.58,5.58,0,1,0,0,11.16H501.708a5.58,5.58,0,1,0,0-11.16Z" transform="translate(-261.671 -161.326)" fill="#2a3b5c"/>
  <path id="Tracé_165" data-name="Tracé 165" d="M308.319,361.881a5.58,5.58,0,0,0-.023,11.16H501.851a5.58,5.58,0,0,0,0-11.16Z" transform="translate(-261.671 -161.326)" fill="#2a3b5c"/>
  <path id="Tracé_166" data-name="Tracé 166" d="M308.319,394.881a5.58,5.58,0,0,0-.023,11.16h43.556a5.58,5.58,0,0,0,0-11.16Z" transform="translate(-261.671 -161.326)" fill="#2a3b5c"/>
  <path id="Tracé_167" data-name="Tracé 167" d="M834.333,568.117H261.671V161.326H834.333ZM271.084,558.7H824.919V170.74H271.084Z" transform="translate(-261.671 -161.326)" fill="#e5e5e5"/>
  <path id="Tracé_168" data-name="Tracé 168" d="M654.143,478.732a10.037,10.037,0,0,0-.042,20.074h95.838a10.037,10.037,0,1,0,0-20.074Z" transform="translate(-261.671 -161.326)" fill="#e4e4e4"/>
  <path id="Tracé_169" data-name="Tracé 169" d="M654.143,357.185a10.037,10.037,0,0,0-.042,20.074h95.838a10.037,10.037,0,1,0,0-20.074Z" transform="translate(-261.671 -161.326)" fill="#e4e4e4"/>
  <path id="Tracé_170" data-name="Tracé 170" d="M308.319,483.381a5.58,5.58,0,0,0-.023,11.16H501.851a5.58,5.58,0,0,0,0-11.16Z" transform="translate(-261.671 -161.326)" fill="#e4e4e4"/>
  <path id="Tracé_171" data-name="Tracé 171" d="M308.319,516.381a5.58,5.58,0,0,0-.023,11.16h43.556a5.58,5.58,0,0,0,0-11.16Z" transform="translate(-261.671 -161.326)" fill="#e4e4e4"/>
  <path id="Tracé_172" data-name="Tracé 172" d="M308.319,449.9a5.58,5.58,0,1,0,0,11.16H501.708a5.58,5.58,0,1,0,0-11.16Z" transform="translate(-261.671 -161.326)" fill="#e4e4e4"/>
  <path id="Tracé_173" data-name="Tracé 173" d="M308.319,206.9a5.58,5.58,0,1,0,0,11.16H501.708a5.58,5.58,0,1,0,0-11.16Z" transform="translate(-261.671 -161.326)" fill="#e4e4e4"/>
  <path id="Tracé_174" data-name="Tracé 174" d="M308.319,240.381a5.58,5.58,0,1,0-.024,11.16H501.851a5.58,5.58,0,0,0,0-11.16Z" transform="translate(-261.671 -161.326)" fill="#e4e4e4"/>
  <path id="Tracé_175" data-name="Tracé 175" d="M308.319,273.381a5.58,5.58,0,1,0-.023,11.16h43.556a5.58,5.58,0,0,0,0-11.16Z" transform="translate(-261.671 -161.326)" fill="#e4e4e4"/>
  <path id="Tracé_176" data-name="Tracé 176" d="M654.143,235.732a10.037,10.037,0,0,0-.042,20.074h95.838a10.037,10.037,0,1,0,0-20.074Z" transform="translate(-261.671 -161.326)" fill="#e4e4e4"/>
  <circle id="Ellipse_14" data-name="Ellipse 14" cx="18" cy="18" r="18" transform="translate(394.662 66.348)" fill="#cacaca"/>
  <path id="Tracé_177" data-name="Tracé 177" d="M705.793,371.574a9.978,9.978,0,0,0,10.276,11.335l9.559,20.7,14-2.741-13.909-29.043a10.032,10.032,0,0,0-19.922-.251Z" transform="translate(-261.671 -161.326)" fill="#ffb6b6"/>
  <path id="Tracé_178" data-name="Tracé 178" d="M540.954,288.584l-39-19.291-27.52-46.707L455.2,231.891l24.964,53.957,63.064,36.4Z" fill="#d9b391"/>
  <path id="Tracé_179" data-name="Tracé 179" d="M452.907,564.7h-12.26l-5.833-35.348h18.1Z" fill="#ffb6b6"/>
  <path id="Tracé_180" data-name="Tracé 180" d="M717.7,737.906H678.174v-.5a15.387,15.387,0,0,1,15.385-15.386h24.146Z" transform="translate(-261.671 -161.326)" fill="#2f2e41"/>
  <path id="Tracé_181" data-name="Tracé 181" d="M575.282,542.21l-8.554,8.782-29.392-20.484,12.625-12.962Z" fill="#ffb6b6"/>
  <path id="Tracé_182" data-name="Tracé 182" d="M847.648,709.588l-27.582,28.318-.358-.349a15.387,15.387,0,0,1-.287-21.758h0l16.846-17.3Z" transform="translate(-261.671 -161.326)" fill="#2f2e41"/>
  <path id="Tracé_183" data-name="Tracé 183" d="M729.735,515.652h-8.479a236.911,236.911,0,0,0-49.423,83.371L661.7,628.682l36.1,75.59,22.528.4-25.748-80.252,25.94-34.4,1.308,69.152,83.492,43.763,16.71-24.685L754.1,641.1l11.57-58.82s23.279-19.412,9.723-49.76Z" transform="translate(-261.671 -161.326)" fill="#2a3b5c"/>
  <path id="Tracé_184" data-name="Tracé 184" d="M841.333,438.674,806.1,423.242l-38.782,17.185s-10.982,6.247-3.982,22.247l-42.078,52.978s.078.022,52.96,16.87l47.711-42.016a58.743,58.743,0,0,0,19.407-51.832Z" transform="translate(-261.671 -161.326)" fill="#d9b391"/>
  <circle id="Ellipse_15" data-name="Ellipse 15" cx="24.561" cy="24.561" r="24.561" transform="translate(549.188 212.338)" fill="#ffb6b6"/>
  <path id="Tracé_185" data-name="Tracé 185" d="M867.228,365.632c-5.637-4.586-14.379-5.587-20.2-1.235-10.149-5.327-23.865-2.548-31.14,6.309-2.618,3.187-4.473,7.5-3.178,11.415s6.882,6.218,9.794,3.3l-.052,1.2a19.495,19.495,0,0,1-12.12,33.2l24.145,9.754c3.387,1.368,6.881,2.758,10.533,2.739s7.545-1.793,8.962-5.159l3.057,9.37a154.219,154.219,0,0,0,14.715-30.337c2.437-6.846,4.406-14,4.143-21.266S872.864,370.217,867.228,365.632Z" transform="translate(-261.671 -161.326)" fill="#2f2e41"/>
  <circle id="Ellipse_16" data-name="Ellipse 16" cx="18" cy="18" r="18" transform="translate(394.662 309.348)" fill="#cacaca"/>
  <path id="Tracé_189" data-name="Tracé 189" d="M18,0A18,18,0,1,1,0,18,18,18,0,0,1,18,0Z" transform="translate(450.662 187.895)" fill="#2a3b5c"/>
  <path id="Tracé_186" data-name="Tracé 186" d="M730.793,361.574a9.978,9.978,0,0,0,10.276,11.335l9.559,20.7,14-2.741-13.909-29.043a10.032,10.032,0,0,0-19.922-.251Z" transform="translate(-261.671 -161.326)" fill="#ffb6b6"/>
  <path id="Tracé_187" data-name="Tracé 187" d="M565.954,278.584l-39-19.291-27.52-46.707L480.2,221.891l24.964,53.957,63.064,36.4Z" fill="#d9b391"/>
  <path id="Tracé_188" data-name="Tracé 188" d="M937.329,738.674h-381a1,1,0,0,1,0-2h381a1,1,0,0,1,0,2Z" transform="translate(-261.671 -161.326)" fill="#cacaca"/>
</svg>
