<svg id="Calque_1" data-name="Calque 1" xmlns="http://www.w3.org/2000/svg" viewBox="0 0 601.41 450"><defs><style>.cls-1{fill:#f2f2f2;}.cls-2{fill:#fff;}.cls-3{fill:#ccc;}.cls-4{fill:#123273;}.cls-5{fill:#3f3d56;}.cls-6{fill:#ffb8b8;}.cls-7{fill:#d9b391;}.cls-8{fill:#2a3b5c;}.cls-9{isolation:isolate;opacity:0.2;}.cls-10{fill:#2f2e41;}.cls-11{fill:#e6e6e6;}.cls-12{fill:#a0616a;}</style></defs><path id="Tracé_94" data-name="Tracé 94" class="cls-1" d="M491.22,271.59H103.87a10,10,0,0,1-10-10V22.77a7.32,7.32,0,0,1,7.31-7.31H493.76a7.44,7.44,0,0,1,7.43,7.44V261.61A10,10,0,0,1,491.22,271.59Z"/><path id="Tracé_95" data-name="Tracé 95" class="cls-2" d="M477.09,257.46h-361c-5.29,0-9.6-4-9.6-9v-208a6.91,6.91,0,0,1,7.12-6.67H479.45a7,7,0,0,1,7.23,6.78V248.48C486.68,253.43,482.38,257.46,477.09,257.46Z"/><path id="Tracé_96" data-name="Tracé 96" class="cls-3" d="M501.05,22.2H93.76V17.12a10,10,0,0,1,10-10H491a10,10,0,0,1,10,10Z"/><path id="Tracé_97" data-name="Tracé 97" class="cls-3" d="M437.35,222.58H157.6A10.6,10.6,0,0,1,147,212V77.12a7.91,7.91,0,0,1,7.91-7.91h285a8.05,8.05,0,0,1,8,8V212a10.6,10.6,0,0,1-10.58,10.58ZM154.93,70.42a6.72,6.72,0,0,0-6.71,6.7V212a9.38,9.38,0,0,0,9.37,9.37H437.35a9.38,9.38,0,0,0,9.37-9.37V77.25a6.83,6.83,0,0,0-6.83-6.83Z"/><path id="Tracé_98" data-name="Tracé 98" class="cls-1" d="M167.27,212H427.68a9.67,9.67,0,0,0,9.67-9.67V89.58a9.67,9.67,0,0,0-9.67-9.67H167.27a9.67,9.67,0,0,0-9.67,9.67V202.33a9.67,9.67,0,0,0,9.67,9.67Z"/><circle id="Ellipse_4" data-name="Ellipse 4" class="cls-3" cx="196.84" cy="107.27" r="5.44"/><circle id="Ellipse_5" data-name="Ellipse 5" class="cls-3" cx="196.84" cy="127.82" r="5.44"/><circle id="Ellipse_6" data-name="Ellipse 6" class="cls-3" cx="196.84" cy="148.37" r="5.44"/><circle id="Ellipse_7" data-name="Ellipse 7" class="cls-3" cx="196.84" cy="168.92" r="5.44"/><path id="Tracé_99" data-name="Tracé 99" class="cls-3" d="M403,107.88H224a.62.62,0,0,1-.6-.61.6.6,0,0,1,.6-.6H403a.6.6,0,0,1,.6.6A.62.62,0,0,1,403,107.88Z"/><path id="Tracé_100" data-name="Tracé 100" class="cls-3" d="M403,128.43H224a.62.62,0,0,1-.6-.61.6.6,0,0,1,.6-.6H403a.6.6,0,0,1,.6.6.62.62,0,0,1-.6.61Z"/><path id="Tracé_101" data-name="Tracé 101" class="cls-3" d="M403,149H224a.61.61,0,0,1,0-1.21H403a.61.61,0,0,1,0,1.21Z"/><path id="Tracé_102" data-name="Tracé 102" class="cls-3" d="M403,169.53H224a.61.61,0,0,1,0-1.21H403a.61.61,0,0,1,0,1.21Z"/><path id="Tracé_103" data-name="Tracé 103" class="cls-4" d="M257.88,190.08H240.36a3,3,0,0,1-3-3V170.74a3,3,0,0,1,3-3h17.52a3,3,0,0,1,3,3v16.32a3,3,0,0,1-3,3Z"/><path id="Tracé_104" data-name="Tracé 104" class="cls-4" d="M297.17,190.08H279.64a3,3,0,0,1-3-3V150.19a3,3,0,0,1,3-3h17.53a3,3,0,0,1,3,3v36.87A3,3,0,0,1,297.17,190.08Z"/><path id="Tracé_105" data-name="Tracé 105" class="cls-4" d="M337.06,190.08H319.54a3,3,0,0,1-3-3V129.63a3,3,0,0,1,3-3h17.52a3,3,0,0,1,3,3v57.43A3,3,0,0,1,337.06,190.08Z"/><path id="Tracé_106" data-name="Tracé 106" class="cls-4" d="M378.17,190.08H360.64a3,3,0,0,1-3-3V109.69a3,3,0,0,1,3-3h17.53a3,3,0,0,1,3,3v77.37A3,3,0,0,1,378.17,190.08Z"/><path id="Tracé_107" data-name="Tracé 107" class="cls-5" d="M403,190.08H224a.61.61,0,0,1,0-1.21H403a.61.61,0,0,1,0,1.21Z"/><path id="Tracé_108" data-name="Tracé 108" class="cls-6" d="M481.55,302.83a6.07,6.07,0,0,1,9.26-1.05l19.2-9.91L508.81,303l-18,7.7a6.11,6.11,0,0,1-9.22-7.9Z"/><path id="Tracé_109" data-name="Tracé 109" class="cls-7" d="M498.07,307a2.71,2.71,0,0,1-.92-1.34l-1.53-4.93a2.73,2.73,0,0,1,1-3L512.14,286,529,254.74a8.76,8.76,0,0,1,13.9,10.68l-.06.07-9.58,20.23a28,28,0,0,1-14.18,13.72l-18.23,7.91a2.73,2.73,0,0,1-2.22,0A2.69,2.69,0,0,1,498.07,307Z"/><circle id="Ellipse_8" data-name="Ellipse 8" class="cls-6" cx="543.25" cy="226.86" r="14.85"/><path id="Tracé_110" data-name="Tracé 110" class="cls-6" d="M537.23,421.6h-7.41L526.29,393h10.94Z"/><path id="Tracé_111" data-name="Tracé 111" class="cls-8" d="M524.52,419.48h14.3v9H515.53a9,9,0,0,1,9-9Z"/><path id="Tracé_112" data-name="Tracé 112" class="cls-6" d="M561.4,421.6H554L550.47,393h10.94Z"/><path id="Tracé_113" data-name="Tracé 113" class="cls-8" d="M548.7,419.48H563v9H539.7a9,9,0,0,1,9-9Z"/><path id="Tracé_114" data-name="Tracé 114" class="cls-8" d="M562,414.35h-8.69a2.74,2.74,0,0,1-2.63-2L538.13,366a.3.3,0,0,0-.59.09l2.53,44a2.72,2.72,0,0,1-2.56,2.87h-.39l-9.76-.82a2.72,2.72,0,0,1-2.47-2.4L516,317.37l3.44,2.07L551.67,314l13,97.3a2.73,2.73,0,0,1-2.34,3.06l-.35,0Z"/><path id="Tracé_115" data-name="Tracé 115" class="cls-7" d="M526.78,327.12a19.93,19.93,0,0,1-10.09-2.84,2.72,2.72,0,0,1-1.29-2.78c1.13-6.94,7.06-42.55,12.46-62,2.2-7.91,7-12.17,14.43-12.66,10.8-.71,20.4,7.74,21.4,18.86,1.77,19.62-5.4,47.48-8.56,58.55a2.72,2.72,0,0,1-3.36,1.87,2.86,2.86,0,0,1-.92-.47l-6.45-5a2.13,2.13,0,0,0-2.73.12C536.24,325.62,531.08,327.12,526.78,327.12Z"/><path id="Tracé_116" data-name="Tracé 116" class="cls-9" d="M548.09,275.33l5.44,23-7.86,19.34,5.44-18.74Z"/><path id="Tracé_117" data-name="Tracé 117" class="cls-10" d="M551.72,239.06a10,10,0,0,0,3.86-.69c.54-.21,1.1-.38,1.64-.59,4.77-1.84,7.9-6.92,8-12a17.33,17.33,0,0,0-6.46-13.33,24.91,24.91,0,0,0-14.1-5.33c-5.49-.42-11.67,1-14.73,5.54a4.81,4.81,0,0,0-.91,4.16,2.77,2.77,0,0,0,.75,1.15c1.37,1.22,2.74.3,4.14.22a4.55,4.55,0,0,1,4.25,3.26,9.83,9.83,0,0,1-.15,5.68,13.93,13.93,0,0,0-.71,3.45,3.45,3.45,0,0,0,1.43,3.05,4,4,0,0,0,4-.41,26.81,26.81,0,0,1,3.53-2.27c1.29-.53,3-.41,3.79.77a4.28,4.28,0,0,1,.48,1.38c.67,3.08.52,2.9,1.19,6Z"/><path id="Tracé_118" data-name="Tracé 118" class="cls-11" d="M528.71,400.87l-93-32.38a6.38,6.38,0,0,1-3.92-8.11L456,291a4.68,4.68,0,0,1,5.95-2.87L558,321.61a4.75,4.75,0,0,1,2.93,6.05l-24.13,69.28a6.39,6.39,0,0,1-8.12,3.92Z"/><path id="Tracé_119" data-name="Tracé 119" class="cls-2" d="M443.68,364.51,525,392.81a6.18,6.18,0,0,0,7.87-3.8l19.5-56a6.18,6.18,0,0,0-3.8-7.87l-81.29-28.31a6.17,6.17,0,0,0-7.86,3.8l-19.51,56a6.18,6.18,0,0,0,3.8,7.87Z"/><path id="Tracé_120" data-name="Tracé 120" class="cls-4" d="M464.1,325.15l-4-1.4a.88.88,0,0,1-.54-1.11l1.4-4a.87.87,0,0,1,1.11-.54l4,1.4a.89.89,0,0,1,.54,1.11l-1.4,4A.87.87,0,0,1,464.1,325.15Z"/><path id="Tracé_121" data-name="Tracé 121" class="cls-8" d="M460.46,335.58l-4-1.4a.87.87,0,0,1-.54-1.11l1.4-4a.87.87,0,0,1,1.11-.54l4,1.4A.87.87,0,0,1,463,331l-1.4,4A.87.87,0,0,1,460.46,335.58Z"/><path id="Tracé_122" data-name="Tracé 122" class="cls-3" d="M456.83,346l-4-1.4a.87.87,0,0,1-.54-1.11l1.4-4a.87.87,0,0,1,1.11-.54l4,1.4a.87.87,0,0,1,.54,1.11l-1.4,4A.87.87,0,0,1,456.83,346Z"/><path id="Tracé_123" data-name="Tracé 123" class="cls-3" d="M491.15,332.32l-19.4-6.76a.87.87,0,0,1-.53-1.11.88.88,0,0,1,1.11-.54l19.39,6.76a.87.87,0,0,1-.57,1.65Z"/><path id="Tracé_124" data-name="Tracé 124" class="cls-3" d="M487.51,342.75,468.12,336a.87.87,0,1,1,.57-1.64h0l19.4,6.75a.87.87,0,0,1-.58,1.65Z"/><path id="Tracé_125" data-name="Tracé 125" class="cls-3" d="M483.88,353.18l-19.39-6.76a.87.87,0,1,1,.57-1.64h0l19.4,6.75a.87.87,0,0,1-.58,1.65Z"/><path id="Tracé_126" data-name="Tracé 126" class="cls-4" d="M535.5,358.83c.14-.34.27-.68.4-1a18.28,18.28,0,0,0-11.25-23.27l-6.38,18.31Z"/><path id="Tracé_127" data-name="Tracé 127" class="cls-8" d="M516.42,353.94l6.37-18.3a18.28,18.28,0,1,0,10.86,24.3Z"/><path id="Tracé_128" data-name="Tracé 128" class="cls-6" d="M539.24,327.68a6.08,6.08,0,0,1,5.57-6.55,5.47,5.47,0,0,1,1.07,0l9-19.64,6,9.52-9.45,17.19a6.11,6.11,0,0,1-12.13-.53Z"/><path id="Tracé_129" data-name="Tracé 129" class="cls-7" d="M554.81,320.77a2.67,2.67,0,0,1-1.55-.49L549,317.34a2.72,2.72,0,0,1-1.08-2.93l5-18.85-6-35a8.76,8.76,0,0,1,17.52-.08l5,21.83a28,28,0,0,1-2.7,19.55l-9.46,17.47a2.76,2.76,0,0,1-2.39,1.43Z"/><path id="Tracé_130" data-name="Tracé 130" class="cls-3" d="M600.81,428.82H486a.61.61,0,0,1,0-1.21H600.81a.61.61,0,0,1,0,1.21Z"/><path id="Tracé_131" data-name="Tracé 131" class="cls-12" d="M296.5,421.3h7.41l3.52-28.58H296.5Z"/><path id="Tracé_132" data-name="Tracé 132" class="cls-8" d="M294.61,418.88H309.2a9.3,9.3,0,0,1,9.3,9.3v.31H294.61Z"/><path id="Tracé_133" data-name="Tracé 133" class="cls-12" d="M266.88,421.3h7.41l3.53-28.58H266.88Z"/><path id="Tracé_134" data-name="Tracé 134" class="cls-8" d="M265,418.88h14.6a9.31,9.31,0,0,1,9.3,9.3v.31H265Z"/><circle id="Ellipse_9" data-name="Ellipse 9" class="cls-12" cx="297.98" cy="208.58" r="14.85"/><path id="Tracé_135" data-name="Tracé 135" class="cls-8" d="M308,415.13H294.21a2.72,2.72,0,0,1-2.72-2.72v0l.8-65.3a.91.91,0,0,0-1.81-.12l-8,65.78a2.73,2.73,0,0,1-2.7,2.39H265.9a2.72,2.72,0,0,1-2.72-2.72v-.21l9.17-117.31.25,0,43.9-4.75-5.82,122.42a2.72,2.72,0,0,1-2.72,2.59Z"/><path id="Tracé_136" data-name="Tracé 136" class="cls-7" d="M272.89,302.09a2.71,2.71,0,0,1-2.71-2.63c-.24-7.42-.65-33.08,4.12-51.92a24.72,24.72,0,0,1,22.84-18.64h0a24.89,24.89,0,0,1,24.52,15.72c8,20.38,15.6,45.49,6.15,49.42-12.39,5.16-45,7.47-54.76,8Z"/><path id="Tracé_137" data-name="Tracé 137" class="cls-12" d="M329.63,193.57a5.9,5.9,0,0,0,.75.66l-1.56,29.94-6.48,3.31,3.73,10.44,12.05-4.76a4.82,4.82,0,0,0,3-4.94l-3.15-34a6.35,6.35,0,1,0-8.88-1.29,7.34,7.34,0,0,0,.51.6Z"/><path id="Tracé_138" data-name="Tracé 138" class="cls-7" d="M328.94,225.28l4.56,13a2.72,2.72,0,0,1-1.66,3.47,2.48,2.48,0,0,1-.39.1L318,244.42a7.56,7.56,0,0,1-5.25-14.17l.28-.1,12.07-6.37a2.71,2.71,0,0,1,3.67,1.14,1.65,1.65,0,0,1,.16.36Z"/><path id="Tracé_139" data-name="Tracé 139" class="cls-12" d="M265.32,193.57a5.9,5.9,0,0,1-.75.66l1.56,29.94,6.48,3.31-3.73,10.44-12.05-4.76a4.83,4.83,0,0,1-3-4.94l3.16-34a6.35,6.35,0,1,1,8.88-1.29,7.34,7.34,0,0,1-.51.6Z"/><path id="Tracé_140" data-name="Tracé 140" class="cls-7" d="M267.58,223.65a2.71,2.71,0,0,1,2.26.13l12.07,6.37a7.55,7.55,0,0,1-5,14.26l-13.45-2.6a2.72,2.72,0,0,1-2.15-3.19,2.36,2.36,0,0,1,.1-.38l4.56-13a2.74,2.74,0,0,1,1.58-1.63Z"/><path id="Tracé_141" data-name="Tracé 141" class="cls-10" d="M303.74,211.1a9.77,9.77,0,0,1,5.47-9.16c4.51-2.34,7.35-7.3,6.1-11.84-1.59-5.81-9.49-9.57-15.9-7.58a29.79,29.79,0,0,0-5,2.33l-4.18,2.24a43.08,43.08,0,0,0-5.16,3,17.1,17.1,0,0,0-6.81,16c.82,5.9,4.69,11.32,10,15a16.9,16.9,0,0,0,6.84,3,9.09,9.09,0,0,0,7.22-1.64c2.9-2.46,2.6-6.6,1.66-10A7.93,7.93,0,0,1,303.74,211.1Z"/><path id="Tracé_142" data-name="Tracé 142" class="cls-3" d="M354.2,428.82H239.36a.61.61,0,1,1,0-1.21H354.2a.61.61,0,0,1,0,1.21Z"/><path id="Tracé_143" data-name="Tracé 143" class="cls-11" d="M166.77,318.56,72,357.43a6.64,6.64,0,0,1-8.66-3.62l-29-70.71A4.86,4.86,0,0,1,37,276.76l98-40.18a4.94,4.94,0,0,1,6.45,2.69l29,70.63a6.66,6.66,0,0,1-3.62,8.66Z"/><path id="Tracé_144" data-name="Tracé 144" class="cls-2" d="M75.44,348.85l82.86-34a6.43,6.43,0,0,0,3.51-8.39l-23.42-57.1a6.45,6.45,0,0,0-8.39-3.51l-82.87,34a6.43,6.43,0,0,0-3.5,8.39l23.42,57.1a6.43,6.43,0,0,0,8.39,3.5Z"/><rect id="Rectangle_59" data-name="Rectangle 59" class="cls-11" x="136.7" y="265.19" width="1.32" height="0.22" transform="translate(-90.41 71.99) rotate(-22.31)"/><path id="Tracé_145" data-name="Tracé 145" class="cls-11" d="M134.33,266.66l-2.46,1-.08-.2,2.46-1Zm-4.92,2-2.46,1-.08-.2,2.46-1Zm-4.92,2-2.46,1-.09-.2,2.47-1Zm-4.92,2-2.46,1-.09-.2,2.46-1Zm-4.92,2-2.47,1-.08-.2,2.46-1Zm-4.93,2-2.46,1-.08-.2,2.46-1Zm-4.92,2-2.46,1-.08-.2,2.46-1Zm-4.92,2-2.46,1-.09-.2,2.47-1Zm-4.92,2-2.46,1-.09-.2,2.46-1Zm-4.92,2-2.47,1-.08-.2,2.46-1Zm-4.93,2-2.46,1-.08-.2,2.45-1Zm-4.92,2-2.46,1-.08-.2,2.46-1Zm-4.92,2-2.46,1-.08-.2,2.46-1Zm-4.92,2-2.46,1-.09-.2,2.46-1Zm-4.92,2-2.46,1-.09-.2,2.46-1Zm-4.93,2L58,298l-.08-.2,2.46-1Z"/><rect id="Rectangle_60" data-name="Rectangle 60" class="cls-11" x="54.27" y="299" width="1.32" height="0.22" transform="translate(-109.42 43.23) rotate(-22.31)"/><rect id="Rectangle_61" data-name="Rectangle 61" class="cls-11" x="104.45" y="300.48" width="1.32" height="0.22" transform="translate(-106.22 62.39) rotate(-22.31)"/><path id="Tracé_146" data-name="Tracé 146" class="cls-11" d="M102.12,301.93l-2.43,1-.08-.2,2.42-1Zm-4.85,2-2.43,1-.08-.2,2.43-1Zm-4.85,2-2.43,1-.08-.2,2.43-1Zm-4.85,2-2.42,1-.09-.2,2.43-1Zm-4.85,2-2.42,1-.09-.2,2.43-1Zm-4.85,2-2.42,1-.09-.2,2.43-1Zm-4.85,2-2.42,1-.09-.2,2.43-1Zm-4.85,2-2.42,1-.09-.2,2.43-1Z"/><rect id="Rectangle_62" data-name="Rectangle 62" class="cls-11" x="62.02" y="317.89" width="1.32" height="0.22" transform="translate(-116.01 47.58) rotate(-22.31)"/><rect id="Rectangle_63" data-name="Rectangle 63" class="cls-11" x="84.36" y="319.16" width="1.32" height="0.22" transform="translate(-114.82 56.16) rotate(-22.31)"/><path id="Tracé_147" data-name="Tracé 147" class="cls-11" d="M82,320.64l-2.5,1-.08-.2,2.49-1Zm-5,2.05-2.5,1-.08-.2,2.49-1Zm-5,2.05-2.5,1-.08-.2,2.5-1Z"/><rect id="Rectangle_64" data-name="Rectangle 64" class="cls-11" x="65.68" y="326.82" width="1.32" height="0.22" transform="translate(-119.12 49.64) rotate(-22.31)"/><rect id="Rectangle_65" data-name="Rectangle 65" class="cls-11" x="90.61" y="334.4" width="1.32" height="0.22" transform="translate(-120.14 59.67) rotate(-22.31)"/><path id="Tracé_148" data-name="Tracé 148" class="cls-11" d="M88.21,335.89l-2.49,1-.09-.2,2.5-1Zm-5,2.05-2.49,1-.09-.2,2.5-1Zm-5,2-2.49,1-.09-.2,2.5-1Z"/><rect id="Rectangle_66" data-name="Rectangle 66" class="cls-11" x="71.94" y="342.07" width="1.32" height="0.22" transform="translate(-124.44 53.16) rotate(-22.31)"/><path id="Tracé_149" data-name="Tracé 149" class="cls-4" d="M79,339.87l70.22-28.81A6.94,6.94,0,0,0,153,302l-14.19-34.58-.13.06-17.24,41.2-12.78-5.34a1.66,1.66,0,0,0-1.47.09,1.78,1.78,0,0,0-.73.87l-9,21.59L88,322a1.66,1.66,0,0,0-2.17.9C85.81,323,80,337.17,79,339.87Z"/><path id="Tracé_150" data-name="Tracé 150" class="cls-5" d="M78.74,340.19l-.2-.08,7.23-17.28a1.86,1.86,0,0,1,2.44-1l9.16,3.83,9-21.47a1.86,1.86,0,0,1,2.44-1l12.6,5.26L138.71,267l.2.09L121.5,308.74l-12.8-5.35a1.64,1.64,0,0,0-2.15.88L97.49,326,88.12,322a1.65,1.65,0,0,0-2.15.88Z"/><circle id="Ellipse_10" data-name="Ellipse 10" class="cls-5" cx="85.63" cy="319.02" r="1.54"/><circle id="Ellipse_11" data-name="Ellipse 11" class="cls-5" cx="105.72" cy="300.34" r="1.54"/><circle id="Ellipse_12" data-name="Ellipse 12" class="cls-5" cx="137" cy="264.99" r="1.54"/><path id="Tracé_151" data-name="Tracé 151" class="cls-6" d="M51,317.27a6.1,6.1,0,0,0,2.74-8.18,6.54,6.54,0,0,0-.56-.91l4.56-44.61H47.9l-3.63,43.56A6.13,6.13,0,0,0,51,317.28Z"/><circle id="Ellipse_13" data-name="Ellipse 13" class="cls-6" cx="60.07" cy="225" r="13.95"/><path id="Tracé_152" data-name="Tracé 152" class="cls-7" d="M62.69,289.55a2.54,2.54,0,0,1-2.45-1.88c-1.12-4.06-4-10.92-8.65-20.4a16.91,16.91,0,0,1,7.82-22.6,16.28,16.28,0,0,1,1.78-.74h0a16.89,16.89,0,0,1,21.56,10.3l.16.46c3.57,11.22,3.4,23.24,3.16,27.88a2.56,2.56,0,0,1-2,2.37l-20.82,4.55A2.51,2.51,0,0,1,62.69,289.55Z"/><path id="Tracé_153" data-name="Tracé 153" class="cls-6" d="M82.86,422h7l3.31-26.86H82.86Z"/><path id="Tracé_154" data-name="Tracé 154" class="cls-8" d="M103.25,428.48H81.36V420H94.79A8.45,8.45,0,0,1,103.25,428.48Z"/><path id="Tracé_155" data-name="Tracé 155" class="cls-6" d="M13.23,413l6.1,3.36,15.84-21.94-9-5Z"/><path id="Tracé_156" data-name="Tracé 156" class="cls-8" d="M28,428.48,8.8,417.94l4.08-7.41L24.65,417A8.45,8.45,0,0,1,28,428.48Z"/><path id="Tracé_157" data-name="Tracé 157" class="cls-8" d="M82.53,407.11A2.56,2.56,0,0,1,80,404.88l-8.71-67.11a1.42,1.42,0,0,0-1.59-1.22,1.44,1.44,0,0,0-1.06.72L32.35,403.12a2.57,2.57,0,0,1-3.15,1.15l-7.91-3a2.55,2.55,0,0,1-1.48-3.3l0,0L45,336.15a2.09,2.09,0,0,0,.13-.49c3.4-26.36,12.07-39.76,14.64-43.24a2,2,0,0,0,.28-1.8l-.35-1.06a2.56,2.56,0,0,1,.49-2.49c9.28-10.56,25.45-4.8,25.61-4.74l.08,0,.05.07C104,307.29,97.33,388,95.8,404a2.56,2.56,0,0,1-2.35,2.3l-10.72.82Z"/><path id="Tracé_158" data-name="Tracé 158" class="cls-6" d="M114.3,241.2a5.94,5.94,0,0,0-.13.93l-24.4,14.08-5.93-3.41-6.32,8.27,9.91,7.07a4.53,4.53,0,0,0,5.45-.14L118,248.16a6,6,0,1,0-3.52-7.67,4.44,4.44,0,0,0-.21.71Z"/><path id="Tracé_159" data-name="Tracé 159" class="cls-7" d="M89,256.88,81.07,267.1a2.57,2.57,0,0,1-3.59.46l-.28-.25L68.27,258A7.1,7.1,0,0,1,77,246.82l11.19,6.26a2.55,2.55,0,0,1,1,3.48,2.2,2.2,0,0,1-.21.32Z"/><path id="Tracé_160" data-name="Tracé 160" class="cls-7" d="M58.39,274.63l-12.71-2.29a2.55,2.55,0,0,1-2.06-3,2.42,2.42,0,0,1,.1-.36l4.11-12.2a7.1,7.1,0,1,1,14,2.45.52.52,0,0,0,0,.11l-.4,12.83a2.56,2.56,0,0,1-2.64,2.47,2.33,2.33,0,0,1-.37,0Z"/><path id="Tracé_161" data-name="Tracé 161" class="cls-10" d="M62.28,221.79c3.58,2.45,8.29,5,12,2.36a6.68,6.68,0,0,0,2.19-7.68c-1.76-5-6.57-7.22-11.18-8.91-6-2.2-12.51-3.95-18.69-2.38S34.9,212.74,36,219c.89,5.06,5.66,9.26,5,14.35s-6.43,7.81-11.52,8.73S18.71,243.31,15.06,247c-4.66,4.65-3.49,13,.89,17.89s11,7.15,17.41,8.66c8.5,2,17.68,3.06,25.75-.27s14.34-12.29,12-20.7c-1-3.56-3.32-6.56-5.56-9.48s-4.53-6-5.38-9.57A9.91,9.91,0,0,1,62,224.8a2.52,2.52,0,0,0,.34-3Z"/><path id="Tracé_162" data-name="Tracé 162" class="cls-3" d="M115.45,428.82H.6a.61.61,0,0,1,0-1.21H115.45a.61.61,0,0,1,0,1.21Z"/></svg>