<svg xmlns="http://www.w3.org/2000/svg" width="589.532" height="475.618" viewBox="0 0 589.532 475.618">
  <g id="Groupe_49" data-name="Groupe 49" transform="translate(-28.468 -100.825)">
    <path id="Tracé_164" data-name="Tracé 164" d="M921.345,674.306l1.144-25.719a83.065,83.065,0,0,1,38.745-9.808c-18.608,15.214-16.283,44.541-28.9,65A49.964,49.964,0,0,1,895.7,726.868L880.123,736.4a83.724,83.724,0,0,1,17.647-67.845,80.872,80.872,0,0,1,14.863-13.81C916.363,664.581,921.345,674.306,921.345,674.306Z" transform="translate(-356.165 -164.107)" fill="#f2f2f2"/>
    <path id="Tracé_175" data-name="Tracé 175" d="M785.165,737.032a1.186,1.186,0,0,1-1.19,1.19H196.823a1.19,1.19,0,0,1,0-2.38H783.975c.316,0-.223-.223,0,0s1.191.874,1.19,1.19Z" transform="translate(-167.165 -161.778)" fill="#ccc"/>
    <path id="Tracé_176" data-name="Tracé 176" d="M524.442,262.9,406.817,289.364a12.2,12.2,0,0,0-9.215,14.565l32.254,143.365,138.2-31.093a6.056,6.056,0,0,0,2.993-1.652L539.007,272.116A12.2,12.2,0,0,0,524.442,262.9Z" transform="translate(-167.165 -161.778)" fill="#e6e6e6"/>
    <path id="Tracé_177" data-name="Tracé 177" d="M481.715,282.642l-64.462,14.5a11.111,11.111,0,0,0-8.394,13.261L439.184,445.2,561.928,417.58l-22.084-98.162a48.7,48.7,0,0,0-58.129-36.777Z" transform="translate(-167.165 -161.778)" fill="#fff"/>
    <path id="Tracé_178" data-name="Tracé 178" d="M538.323,410.314,457.4,428.52a2.7,2.7,0,1,0,1.187,5.275l80.921-18.206a2.7,2.7,0,0,0-1.187-5.275Z" transform="translate(-167.165 -161.778)" fill="#e4e4e4"/>
    <path id="Tracé_179" data-name="Tracé 179" d="M535.977,399.883l-80.922,18.206a2.706,2.706,0,0,0,1.188,5.28l80.921-18.206a2.706,2.706,0,1,0-1.188-5.28Z" transform="translate(-167.165 -161.778)" fill="#e4e4e4"/>
    <path id="Tracé_180" data-name="Tracé 180" d="M487.788,399.77l-35.078,7.892a2.7,2.7,0,1,0,1.187,5.275l35.078-7.892a2.7,2.7,0,1,0-1.187-5.275Z" transform="translate(-167.165 -161.778)" fill="#e4e4e4"/>
    <path id="Tracé_181" data-name="Tracé 181" d="M528.717,367.614,447.8,385.82a2.706,2.706,0,0,0,1.188,5.28L529.9,372.894a2.706,2.706,0,0,0-1.188-5.28Z" transform="translate(-167.165 -161.778)" fill="#e4e4e4"/>
    <path id="Tracé_182" data-name="Tracé 182" d="M526.371,357.188,445.45,375.394a2.7,2.7,0,0,0,1.187,5.275l80.921-18.206a2.7,2.7,0,1,0-1.187-5.275Z" transform="translate(-167.165 -161.778)" fill="#e4e4e4"/>
    <path id="Tracé_183" data-name="Tracé 183" d="M478.181,357.07,443.1,364.962a2.706,2.706,0,0,0,1.188,5.28l35.078-7.892a2.706,2.706,0,1,0-1.188-5.28Z" transform="translate(-167.165 -161.778)" fill="#e4e4e4"/>
    <path id="Tracé_184" data-name="Tracé 184" d="M519.11,324.914,438.189,343.12a2.706,2.706,0,1,0,1.188,5.28L520.3,330.194a2.706,2.706,0,0,0-1.188-5.28Z" transform="translate(-167.165 -161.778)" fill="#e6e6e6"/>
    <path id="Tracé_185" data-name="Tracé 185" d="M516.765,314.488l-80.921,18.206a2.706,2.706,0,0,0,1.188,5.28l80.921-18.206a2.706,2.706,0,0,0-1.188-5.28Z" transform="translate(-167.165 -161.778)" fill="#e6e6e6"/>
    <path id="Tracé_186" data-name="Tracé 186" d="M468.574,314.371,433.5,322.262a2.706,2.706,0,0,0,1.188,5.28l35.078-7.892a2.706,2.706,0,1,0-1.188-5.28Z" transform="translate(-167.165 -161.778)" fill="#e6e6e6"/>
    <path id="Tracé_187" data-name="Tracé 187" d="M289.779,429.241a2.9,2.9,0,0,0-2.892,2.892V731.181a2.9,2.9,0,0,0,2.892,2.893H664.724a2.9,2.9,0,0,0,2.892-2.893V480.137a2.9,2.9,0,0,0-2.892-2.893H449.53a8.765,8.765,0,0,1-5.907-2.282L395.245,431a6.77,6.77,0,0,0-4.562-1.763Z" transform="translate(-167.165 -161.778)" fill="#3f3d56"/>
    <path id="Tracé_188" data-name="Tracé 188" d="M737.242,351.025,536.479,264.713a22.116,22.116,0,0,0-29.019,11.569l-105.2,244.7L638.147,622.388a10.978,10.978,0,0,0,6.15.761L748.812,380.043a22.116,22.116,0,0,0-11.569-29.019Z" transform="translate(-167.165 -161.778)" fill="#e6e6e6"/>
    <path id="Tracé_189" data-name="Tracé 189" d="M653.54,334.535l-110.023-47.3a20.14,20.14,0,0,0-26.427,10.528l-98.907,230.06,209.5,90.067,72.029-167.543A88.262,88.262,0,0,0,653.54,334.535Z" transform="translate(-167.165 -161.778)" fill="#fff"/>
    <path id="Tracé_190" data-name="Tracé 190" d="M600.776,582.114,462.659,522.735a4.9,4.9,0,0,0-3.871,9l138.117,59.379a4.9,4.9,0,0,0,3.871-9Z" transform="translate(-167.165 -161.778)" fill="#e4e4e4"/>
    <path id="Tracé_191" data-name="Tracé 191" d="M608.43,564.309,470.313,504.931a4.9,4.9,0,1,0-3.875,9.012l138.117,59.379a4.905,4.905,0,1,0,3.875-9.012Z" transform="translate(-167.165 -161.778)" fill="#e4e4e4"/>
    <path id="Tracé_192" data-name="Tracé 192" d="M537.835,512.875l-59.871-25.74a4.9,4.9,0,1,0-3.871,9l59.871,25.74a4.9,4.9,0,0,0,3.871-9Z" transform="translate(-167.165 -161.778)" fill="#e4e4e4"/>
    <path id="Tracé_193" data-name="Tracé 193" d="M632.108,509.233,493.991,449.855a4.9,4.9,0,1,0-3.875,9.012l138.117,59.379a4.905,4.905,0,1,0,3.875-9.012Z" transform="translate(-167.165 -161.778)" fill="#e4e4e4"/>
    <path id="Tracé_194" data-name="Tracé 194" d="M639.759,491.438,501.642,432.06a4.9,4.9,0,1,0-3.871,9l138.117,59.379a4.9,4.9,0,1,0,3.871-9Z" transform="translate(-167.165 -161.778)" fill="#e4e4e4"/>
    <path id="Tracé_195" data-name="Tracé 195" d="M569.167,439.995,509.3,414.255a4.905,4.905,0,0,0-3.875,9.012l59.872,25.74a4.905,4.905,0,0,0,3.875-9.012Z" transform="translate(-167.165 -161.778)" fill="#e4e4e4"/>
    <path id="Tracé_196" data-name="Tracé 196" d="M663.441,436.353,525.324,376.974a4.905,4.905,0,1,0-3.875,9.012l138.117,59.379a4.9,4.9,0,1,0,3.875-9.012Z" transform="translate(-167.165 -161.778)" fill="#2a3b5c"/>
    <path id="Tracé_197" data-name="Tracé 197" d="M671.091,418.558,532.974,359.179a4.9,4.9,0,1,0-3.875,9.012L667.216,427.57a4.9,4.9,0,1,0,3.875-9.012Z" transform="translate(-167.165 -161.778)" fill="#2a3b5c"/>
    <path id="Tracé_198" data-name="Tracé 198" d="M600.5,367.115l-59.871-25.74a4.9,4.9,0,1,0-3.875,9.012l59.871,25.74a4.9,4.9,0,1,0,3.875-9.012Z" transform="translate(-167.165 -161.778)" fill="#2a3b5c"/>
    <path id="Tracé_199" data-name="Tracé 199" d="M451.442,439.9,333.817,466.364a12.2,12.2,0,0,0-9.215,14.565l32.254,143.365,138.2-31.093a6.056,6.056,0,0,0,2.993-1.652L466.007,449.116a12.2,12.2,0,0,0-14.565-9.215Z" transform="translate(-167.165 -161.778)" fill="#e6e6e6"/>
    <path id="Tracé_200" data-name="Tracé 200" d="M408.715,459.642l-64.462,14.5a11.111,11.111,0,0,0-8.394,13.261L366.184,622.2,488.928,594.58l-22.084-98.162a48.7,48.7,0,0,0-58.129-36.777Z" transform="translate(-167.165 -161.778)" fill="#fff"/>
    <path id="Tracé_201" data-name="Tracé 201" d="M465.323,587.314,384.4,605.52a2.7,2.7,0,1,0,1.187,5.275l80.921-18.206a2.7,2.7,0,1,0-1.187-5.275Z" transform="translate(-167.165 -161.778)" fill="#e4e4e4"/>
    <path id="Tracé_202" data-name="Tracé 202" d="M462.976,576.883l-80.921,18.206a2.706,2.706,0,1,0,1.188,5.28l80.921-18.206a2.706,2.706,0,1,0-1.188-5.28Z" transform="translate(-167.165 -161.778)" fill="#e4e4e4"/>
    <path id="Tracé_203" data-name="Tracé 203" d="M414.788,576.77l-35.078,7.892a2.7,2.7,0,1,0,1.187,5.275l35.078-7.892a2.7,2.7,0,0,0-1.187-5.275Z" transform="translate(-167.165 -161.778)" fill="#e4e4e4"/>
    <path id="Tracé_204" data-name="Tracé 204" d="M455.717,544.614,374.8,562.82a2.706,2.706,0,1,0,1.188,5.28L456.9,549.894a2.706,2.706,0,1,0-1.188-5.28Z" transform="translate(-167.165 -161.778)" fill="#e4e4e4"/>
    <path id="Tracé_205" data-name="Tracé 205" d="M453.371,534.188,372.45,552.394a2.7,2.7,0,0,0,1.187,5.275l80.921-18.206a2.7,2.7,0,1,0-1.187-5.275Z" transform="translate(-167.165 -161.778)" fill="#e4e4e4"/>
    <path id="Tracé_206" data-name="Tracé 206" d="M405.181,534.07,370.1,541.962a2.706,2.706,0,1,0,1.188,5.28l35.078-7.892a2.706,2.706,0,0,0-1.188-5.28Z" transform="translate(-167.165 -161.778)" fill="#e4e4e4"/>
    <path id="Tracé_207" data-name="Tracé 207" d="M446.11,501.914,365.189,520.12a2.706,2.706,0,1,0,1.188,5.28L447.3,507.194a2.706,2.706,0,1,0-1.188-5.28Z" transform="translate(-167.165 -161.778)" fill="#e6e6e6"/>
    <path id="Tracé_208" data-name="Tracé 208" d="M443.765,491.488l-80.921,18.206a2.706,2.706,0,1,0,1.188,5.28l80.921-18.206a2.706,2.706,0,1,0-1.188-5.28Z" transform="translate(-167.165 -161.778)" fill="#e6e6e6"/>
    <path id="Tracé_209" data-name="Tracé 209" d="M395.574,491.371,360.5,499.262a2.706,2.706,0,0,0,1.188,5.28l35.078-7.892a2.706,2.706,0,1,0-1.188-5.28Z" transform="translate(-167.165 -161.778)" fill="#e6e6e6"/>
    <path id="Tracé_210" data-name="Tracé 210" d="M287.294,507.787a2.892,2.892,0,0,0-2.892,2.892c0,.108.089,222.826.089,222.826a2.89,2.89,0,0,0,2.874,2.568H690.138a2.89,2.89,0,0,0,2.874-2.568L718.082,511a2.892,2.892,0,0,0-.717-2.251,2.859,2.859,0,0,0-2.156-.965Z" transform="translate(-167.165 -161.778)" fill="#3f3d56"/>
    <path id="Tracé_211" data-name="Tracé 211" d="M315.717,520.117a15.555,15.555,0,0,0-15.509,15.374l.5,172.607a15.509,15.509,0,0,0,15.509,15.645H571.9A119.174,119.174,0,0,0,690.41,617.833l9.067-80.47a15.508,15.508,0,0,0-15.412-17.246Zm391.811,0-.046-1h.046Z" transform="translate(-167.165 -161.778)" fill="#d9b391"/>
    <path id="Tracé_212" data-name="Tracé 212" d="M427.4,649.434H328.353a3.859,3.859,0,0,1,0-7.718H427.4C432.376,641.647,432.426,649.5,427.4,649.434Z" transform="translate(-167.165 -161.778)" fill="#e4e4e4"/>
    <path id="Tracé_213" data-name="Tracé 213" d="M560.826,669.62H328.353a3.859,3.859,0,0,1,0-7.718H560.826C565.8,661.833,565.852,669.69,560.826,669.62Z" transform="translate(-167.165 -161.778)" fill="#e4e4e4"/>
  </g>
</svg>
