<?xml version="1.0" encoding="utf-8"?>
<!-- Generator: Adobe Illustrator 26.0.1, SVG Export Plug-In . SVG Version: 6.00 Build 0)  -->
<svg version="1.1" id="Calque_1" xmlns="http://www.w3.org/2000/svg" xmlns:xlink="http://www.w3.org/1999/xlink" x="0px" y="0px"
	 viewBox="0 0 81 80.9" style="enable-background:new 0 0 81 80.9;" xml:space="preserve">
<style type="text/css">
	.st0{fill-rule:evenodd;clip-rule:evenodd;stroke:#000000;stroke-width:2.5;}
	.st1{fill:none;stroke:#000000;stroke-width:2.5;}
	.st2{fill:none;stroke:#000000;}
	.st3{fill-rule:evenodd;clip-rule:evenodd;stroke:#000000;}
	.st4{fill:none;stroke:#000000;stroke-width:2.5;stroke-linecap:round;}
</style>
<polyline class="st0" points="27.1,44.9 5.1,44.9 5.1,44.9 2.4,58.2 27.2,58.2 "/>
<polyline class="st1" points="4.1,58.5 4.1,76.3 27.2,76.3 "/>
<polygon class="st2" points="8.7,62.8 8.7,71.8 13.3,71.8 13.3,62.8 "/>
<polygon class="st2" points="17.9,62.8 17.9,71.8 22.5,71.8 22.5,62.8 "/>
<polygon class="st3" points="4.7,58.7 4.7,76.4 27,76.4 22.5,71.9 8.2,71.9 8.2,62.3 22.9,62.3 26.2,59 "/>
<polygon class="st3" points="13.9,62.5 13.9,72.4 17.5,72.4 17.5,63 22.8,63 22.8,72.5 26.2,75.7 26.2,59.9 13.8,59.9 "/>
<polyline class="st0" points="54,44.9 75.9,44.9 75.9,44.9 78.6,58.2 53.9,58.2 "/>
<polyline class="st1" points="76.9,58.5 76.9,76.3 54,76.3 "/>
<polygon class="st2" points="72.3,62.8 72.3,71.8 67.7,71.8 67.7,62.8 "/>
<polygon class="st2" points="63.1,62.8 63.1,71.8 58.5,71.8 58.5,62.8 "/>
<polygon class="st3" points="54.4,58.6 54.4,76.2 76.9,76.2 73,72.6 57.9,72.6 57.9,62.1 73.5,62.1 76.1,59.2 "/>
<polygon class="st3" points="64,61.6 64,72.9 66.8,72.9 66.8,61.9 73.1,61.9 73.1,72.7 75.8,75.4 75.8,60.2 63.7,60.2 "/>
<polyline class="st1" points="21.1,36.6 40.5,21.4 40.5,21.4 59.9,36.6 "/>
<path class="st1" d="M40.8,33.1L40.8,33.1c4.5,0,8.1,3.6,8.1,8.1l0,0c0,4.5-3.6,8.1-8.1,8.1l0,0l0,0c-4.5,0-8.1-3.6-8.1-8.1l0,0l0,0
	C32.7,36.7,36.3,33.1,40.8,33.1z"/>
<polyline class="st4" points="40.8,36.9 40.8,41.7 44.9,41.7 "/>
<polyline class="st0" points="40.5,21.4 40.5,9.5 51.3,11.6 51.3,13.2 40.8,15.2 "/>
<path class="st1" d="M35.9,75.2V63.8c-0.1-2.7,2-5,4.6-5.1s5,2,5.1,4.6c0,0.1,0,0.3,0,0.4v11.5"/>
<polyline class="st4" points="27,32.3 27,76.3 54,76.3 54,32.6 "/>
<polygon class="st3" points="27.2,32.4 40.1,22.3 53.3,32.4 53.3,76.1 45.7,76.1 45.7,61.9 40.3,58.7 40.3,49.4 44.9,48.1 
	48.9,43.4 48.9,38.1 45.7,34.3 41.2,33.2 36,34.3 33.6,37 "/>
<polygon class="st3" points="27.2,75.9 27.2,32.5 33.5,36.9 32.5,40.7 33.5,44.5 36.2,47.7 40.6,49.8 40.6,59.1 37,60.7 35.8,64.1 
	35.8,76.2 "/>
</svg>
