<svg id="Calque_1" data-name="Calque 1" xmlns="http://www.w3.org/2000/svg" viewBox="0 0 87.65 84.02"><defs><style>.cls-1,.cls-4{fill:#edf2f7;fill-rule:evenodd;}.cls-1,.cls-2,.cls-3,.cls-4,.cls-5{stroke:#edf2f7;}.cls-1,.cls-2,.cls-5{stroke-width:2.5px;}.cls-2,.cls-3,.cls-5{fill:none;}.cls-5{stroke-linecap:round;}</style></defs><polyline class="cls-1" points="30.77 44.9 8.77 44.9 8.77 44.9 6.07 58.2 30.87 58.2"/><polyline class="cls-2" points="7.77 58.5 7.77 76.3 30.87 76.3"/><polygon class="cls-3" points="12.37 62.8 12.37 71.8 16.97 71.8 16.97 62.8 12.37 62.8"/><polygon class="cls-3" points="21.57 62.8 21.57 71.8 26.17 71.8 26.17 62.8 21.57 62.8"/><polygon class="cls-4" points="8.37 58.7 8.37 76.4 30.67 76.4 26.17 71.9 11.87 71.9 11.87 62.3 26.57 62.3 29.87 59 8.37 58.7"/><polygon class="cls-4" points="17.57 62.5 17.57 72.4 21.17 72.4 21.17 63 26.47 63 26.47 72.5 29.87 75.7 29.87 59.9 17.47 59.9 17.57 62.5"/><polyline class="cls-1" points="57.67 44.9 79.57 44.9 79.57 44.9 82.27 58.2 57.57 58.2"/><polyline class="cls-2" points="80.57 58.5 80.57 76.3 57.67 76.3"/><polygon class="cls-3" points="75.97 62.8 75.97 71.8 71.37 71.8 71.37 62.8 75.97 62.8"/><polygon class="cls-3" points="66.77 62.8 66.77 71.8 62.17 71.8 62.17 62.8 66.77 62.8"/><polygon class="cls-4" points="58.07 58.6 58.07 76.2 80.57 76.2 76.67 72.6 61.57 72.6 61.57 62.1 77.17 62.1 79.77 59.2 58.07 58.6"/><polygon class="cls-4" points="67.67 61.6 67.67 72.9 70.47 72.9 70.47 61.9 76.77 61.9 76.77 72.7 79.47 75.4 79.47 60.2 67.37 60.2 67.67 61.6"/><polyline class="cls-2" points="24.77 36.6 44.17 21.4 44.17 21.4 63.57 36.6"/><path class="cls-2" d="M44.47,33.1h0a8.07,8.07,0,0,1,8.1,8.1h0a8.07,8.07,0,0,1-8.1,8.1h0a8.07,8.07,0,0,1-8.1-8.1h0A8.07,8.07,0,0,1,44.47,33.1Z"/><polyline class="cls-5" points="44.47 36.9 44.47 41.7 48.57 41.7"/><polyline class="cls-1" points="44.17 21.4 44.17 9.5 54.97 11.6 54.97 13.2 44.47 15.2"/><path class="cls-2" d="M39.57,75.2V63.8a4.9,4.9,0,0,1,4.6-5.1,5,5,0,0,1,5.1,4.6V75.2"/><polyline class="cls-5" points="30.67 32.3 30.67 76.3 57.67 76.3 57.67 32.6"/><polygon class="cls-4" points="30.87 32.4 43.77 22.3 56.97 32.4 56.97 76.1 49.37 76.1 49.37 61.9 43.97 58.7 43.97 49.4 48.57 48.1 52.57 43.4 52.57 38.1 49.37 34.3 44.87 33.2 39.67 34.3 37.27 37 30.87 32.4"/><polygon class="cls-4" points="30.87 75.9 30.87 32.5 37.17 36.9 36.17 40.7 37.17 44.5 39.87 47.7 44.27 49.8 44.27 59.1 40.67 60.7 39.47 64.1 39.47 76.2 30.87 75.9"/></svg>