<?xml version="1.0" encoding="utf-8"?>
<!-- Generator: Adobe Illustrator 26.0.1, SVG Export Plug-In . SVG Version: 6.00 Build 0)  -->
<svg version="1.1" id="Calque_1" xmlns="http://www.w3.org/2000/svg" xmlns:xlink="http://www.w3.org/1999/xlink" x="0px" y="0px"
	 viewBox="0 0 300 80.3" style="enable-background:new 0 0 300 80.3;" xml:space="preserve">
<style type="text/css">
	.st0{fill:#D9B391;}
	.st1{fill:#123273;}
	.st2{font-family:'LibreBaskerville-Bold';}
	.st3{font-size:30px;}
	.st4{fill:#2A3B5C;}
	.st5{font-family:'NotoSans';}
	.st6{font-size:25px;}
</style>
<polygon class="st0" points="24.4,1.5 32.7,7.7 37.8,20.1 44.2,22.7 46.5,18.5 48.2,19.7 47.6,17.9 40.9,15 34.7,5.2 "/>
<polygon class="st0" points="48.4,18 67.4,17.9 69.1,20.8 51.3,27.6 "/>
<polygon class="st0" points="43.8,24.8 46.8,19.3 48.5,20.5 49.3,23.1 "/>
<path class="st0" d="M49.5,23.5l-1.3,0.4l1.8,0.9L49.5,23.5z"/>
<polygon class="st0" points="51.4,28 60.5,24.5 72.4,37.2 66.3,61.3 "/>
<polygon class="st0" points="66.2,62.4 54.4,36.2 27.2,45 25.8,56.9 "/>
<polygon class="st0" points="27.7,80.2 25.8,57.5 33.2,58.5 "/>
<polygon class="st0" points="59.9,62.1 66.2,62.8 65.1,66.1 69.2,79.8 63.7,71.9 61.5,80.3 "/>
<text transform="matrix(1 0 0 1 97.78 43.5607)" class="st1 st2 st3">W</text>
<text transform="matrix(1 0 0 1 135.43 43.5607)" class="st1 st2 st3">hit</text>
<text transform="matrix(1 0 0 1 179.14 43.5607)" class="st1 st2 st3">e</text>
<text transform="matrix(1 0 0 1 196.45 43.5607)" class="st1 st2 st3">Boo</text>
<text transform="matrix(1 0 0 1 259.96 43.5607)" class="st1 st2 st3">k</text>
<text transform="matrix(1 0 0 1 103.6664 68.8502)" class="st4 st5 st6">DH</text>
</svg>
